# xmcd CD database file
#
# Track frame offsets:
#	150
#	13650
#	30128
#	47110
#	61835
#	75122
#	87869
#	107134
#	127822
#	149145
#
# Disc length: 2192 seconds
#
# Revision: 0
# Processed by: cddbd v1.5.1PL2 Copyright (c) Steve Scherf et al.
# Submitted via: CDex 1.51
#
DISCID=71088e0a
DTITLE=Davin James - Palmer Lake
DYEAR=2006
DGENRE=Country
TTITLE0=Get Together
TTITLE1=Palmer Lake
TTITLE2=Something to Fall Back On
TTITLE3=Makes My Living
TTITLE4=Ain't No Soul on the Radio
TTITLE5=When a Song Was Still a Song
TTITLE6=Sweet Tooth
TTITLE7=Felt a Delta
TTITLE8=Taking it Slow
TTITLE9=Honeysuckle Madness
EXTD=YEAR: 2006
EXTT0=
EXTT1=
EXTT2=
EXTT3=
EXTT4=
EXTT5=
EXTT6=
EXTT7=
EXTT8=
EXTT9=
PLAYORDER=
